<?xml version="1.0" encoding="utf-8"?>
<!-- Generator: Adobe Illustrator 19.2.1, SVG Export Plug-In . SVG Version: 6.00 Build 0)  -->
<svg version="1.1" id="Layer_1" xmlns="http://www.w3.org/2000/svg" xmlns:xlink="http://www.w3.org/1999/xlink" x="0px" y="0px"
	 viewBox="0 0 499.3 118.7" style="enable-background:new 0 0 499.3 118.7;" xml:space="preserve">
<style type="text/css">
	.st0{fill:#F18B21;}
	.st1{fill:#978B82;}
	.st2{fill:#F5A858;}
	.st3{fill:#F8C590;}
</style>
<g id="Layer_1_1_">
</g>
<g id="Layer_1_2_">
	<g>
		<path class="st0" d="M0.7,49L0.7,49c0-7,5.2-10.2,12.7-10.2c3.2,0,5.5,0.5,7.7,1.3v-0.5c0-3.7-2.3-5.8-6.8-5.8
			c-3.4,0-5.8,0.6-8.7,1.7l-2.2-6.9c3.5-1.5,6.9-2.5,12.3-2.5c4.9,0,8.4,1.3,10.7,3.5c2.4,2.4,3.4,5.8,3.4,10.1V58h-8.7v-3.4
			c-2.2,2.4-5.2,4-9.5,4C5.6,58.6,0.7,55.2,0.7,49z M21.3,46.9v-1.6c-1.5-0.7-3.5-1.2-5.7-1.2c-3.8,0-6.2,1.5-6.2,4.4v0.1
			c0,2.4,2,3.8,4.9,3.8C18.5,52.4,21.3,50.1,21.3,46.9z"/>
		<path class="st0" d="M36.1,42.3L36.1,42.3c0-10.6,6.9-16.4,14.4-16.4c4.8,0,7.7,2.2,9.8,4.7V15h9v43h-9v-4.5
			c-2.2,2.9-5.2,5.1-9.8,5.1C43.2,58.6,36.1,52.8,36.1,42.3z M60.5,42.3L60.5,42.3c0-5.3-3.5-8.8-7.7-8.8s-7.7,3.4-7.7,8.7v0.1
			c0,5.2,3.5,8.7,7.7,8.7S60.5,47.5,60.5,42.3z"/>
		<path class="st0" d="M74.1,26.4h9.5l7,21.2l7.1-21.2h9.3L94.6,58.3h-8.1L74.1,26.4z"/>
		<path class="st0" d="M108.7,42.4L108.7,42.4c0-9.2,7.3-16.5,17.1-16.5s17,7.2,17,16.3v0.1c0,9.1-7.3,16.4-17.1,16.4
			C115.9,58.7,108.7,51.5,108.7,42.4z M134,42.4L134,42.4c0-4.8-3.4-8.8-8.3-8.8c-5.1,0-8.2,3.9-8.2,8.6v0.1c0,4.7,3.4,8.7,8.3,8.7
			C131,51,134,47.1,134,42.4z"/>
		<path class="st0" d="M147.7,42.4L147.7,42.4c0-9.1,6.9-16.5,16.6-16.5c6,0,9.7,2,12.6,5.3l-5.5,5.9c-2-2.1-4-3.5-7.2-3.5
			c-4.5,0-7.7,3.9-7.7,8.6v0.1c0,4.8,3.1,8.7,8,8.7c3,0,5.1-1.3,7.2-3.4l5.2,5.3c-3.1,3.4-6.6,5.8-12.9,5.8
			C154.6,58.7,147.7,51.4,147.7,42.4z"/>
		<path class="st0" d="M180.9,49L180.9,49c0-7,5.2-10.2,12.7-10.2c3.2,0,5.5,0.5,7.7,1.3v-0.5c0-3.7-2.3-5.8-6.8-5.8
			c-3.4,0-5.8,0.6-8.7,1.7l-2.2-6.8c3.5-1.5,6.9-2.5,12.3-2.5c4.9,0,8.4,1.3,10.7,3.5c2.4,2.4,3.4,5.8,3.4,10.1v18.3h-8.7v-3.5
			c-2.2,2.4-5.2,4-9.5,4C185.8,58.6,180.9,55.2,180.9,49z M201.5,46.9v-1.6c-1.5-0.7-3.5-1.2-5.7-1.2c-3.8,0-6.2,1.5-6.2,4.4v0.1
			c0,2.4,2,3.8,4.9,3.8C198.7,52.4,201.5,50.1,201.5,46.9z"/>
		<path class="st0" d="M216.1,42.4L216.1,42.4c0-9.1,6.9-16.5,16.6-16.5c6,0,9.7,2,12.6,5.3l-5.5,5.9c-2-2.1-4-3.5-7.2-3.5
			c-4.5,0-7.7,3.9-7.7,8.6v0.1c0,4.8,3.1,8.7,8,8.7c3,0,5.1-1.3,7.2-3.4l5.2,5.3c-3.1,3.4-6.6,5.8-12.9,5.8
			C223,58.7,216.1,51.4,216.1,42.4z"/>
		<path class="st0" d="M250.7,65.4l3-6.5c1.2,0.7,2.7,1.2,3.8,1.2c1.5,0,2.4-0.5,3.1-2.1l-12.4-31.7h9.5l7.2,21.5l6.9-21.5h9.3
			L269,58.6c-2.4,6.4-5,8.8-10.4,8.8C255.4,67.6,253,66.8,250.7,65.4z"/>
		<path class="st1" d="M0.7,99.3L0.7,99.3c0-7,5.2-10.2,12.7-10.2c3.2,0,5.5,0.5,7.7,1.3v-0.5c0-3.7-2.3-5.8-6.8-5.8
			c-3.4,0-5.8,0.6-8.7,1.7L3.4,79c3.5-1.5,6.9-2.5,12.3-2.5c4.9,0,8.4,1.3,10.7,3.5c2.4,2.4,3.4,5.8,3.4,10.1v18.3h-8.7V105
			c-2.2,2.4-5.2,4-9.5,4C5.6,109,0.7,105.6,0.7,99.3z M21.3,97.3v-1.6c-1.5-0.7-3.5-1.2-5.7-1.2c-3.8,0-6.2,1.5-6.2,4.4V99
			c0,2.4,2,3.8,4.9,3.8C18.5,102.8,21.3,100.5,21.3,97.3z"/>
		<path class="st1" d="M35,92.8L35,92.8c0-9.1,6.9-16.5,16.6-16.5c6,0,9.7,2,12.6,5.3l-5.5,5.9c-2-2.1-4-3.5-7.2-3.5
			c-4.5,0-7.7,3.9-7.7,8.6v0.1c0,4.8,3.1,8.7,8,8.7c3,0,5.1-1.3,7.2-3.4l5.2,5.3c-3.1,3.4-6.6,5.8-12.9,5.8
			C41.9,109.1,35,101.8,35,92.8z"/>
		<path class="st1" d="M66.4,92.8L66.4,92.8c0-9.1,6.9-16.5,16.6-16.5c6,0,9.7,2,12.6,5.3l-5.5,5.9c-2-2.1-4-3.5-7.2-3.5
			c-4.5,0-7.7,3.9-7.7,8.6v0.1c0,4.8,3.1,8.7,8,8.7c3,0,5.1-1.3,7.2-3.4l5.2,5.3c-3.1,3.4-6.6,5.8-12.9,5.8
			C73.4,109.1,66.4,101.8,66.4,92.8z"/>
		<path class="st1" d="M98.1,92.8L98.1,92.8c0-9.1,6.4-16.5,15.6-16.5c10.5,0,15.4,8.2,15.4,17.1c0,0.7-0.1,1.5-0.1,2.4h-22
			c0.9,4.1,3.7,6.2,7.7,6.2c3,0,5.2-0.9,7.7-3.2l5.1,4.5c-2.9,3.7-7.2,5.9-12.9,5.9C105.1,109.1,98.1,102.4,98.1,92.8z M120.3,90.1
			c-0.5-4-2.9-6.7-6.7-6.7c-3.7,0-6.1,2.7-6.8,6.7H120.3z"/>
		<path class="st1" d="M133.8,65.4h9v43h-9V65.4z"/>
		<path class="st1" d="M147.5,92.8L147.5,92.8c0-9.1,6.4-16.5,15.6-16.5c10.5,0,15.4,8.2,15.4,17.1c0,0.7-0.1,1.5-0.1,2.4h-22
			c0.9,4.1,3.7,6.2,7.7,6.2c3,0,5.2-0.9,7.7-3.2l5.1,4.5c-2.9,3.7-7.2,5.9-12.9,5.9C154.5,109.1,147.5,102.4,147.5,92.8z
			 M169.8,90.1c-0.5-4-2.9-6.7-6.7-6.7c-3.7,0-6.1,2.7-6.8,6.7H169.8z"/>
		<path class="st1" d="M184.1,76.8h9v6.4c1.8-4.4,4.8-7.2,10.1-7v9.4h-0.5c-6,0-9.6,3.6-9.6,11.1v11.7h-9V76.8z"/>
		<path class="st1" d="M204.8,99.3L204.8,99.3c0-7,5.2-10.2,12.7-10.2c3.2,0,5.5,0.5,7.7,1.3v-0.5c0-3.7-2.3-5.8-6.8-5.8
			c-3.4,0-5.8,0.6-8.7,1.7l-2.2-6.8c3.5-1.5,6.9-2.5,12.3-2.5c4.9,0,8.4,1.3,10.7,3.5c2.4,2.4,3.4,5.8,3.4,10.1v18.3h-8.7V105
			c-2.2,2.4-5.2,4-9.5,4C209.7,109,204.8,105.6,204.8,99.3z M225.4,97.3v-1.6c-1.5-0.7-3.5-1.2-5.7-1.2c-3.8,0-6.2,1.5-6.2,4.4V99
			c0,2.4,2,3.8,4.9,3.8C222.6,102.8,225.4,100.5,225.4,97.3z"/>
		<path class="st1" d="M241.9,99.4v-15h-3.8v-7.7h3.8v-8.1h9v8.1h7.4v7.7h-7.4v13.5c0,2.1,0.9,3.1,2.9,3.1c1.7,0,3.1-0.4,4.4-1.1
			v7.2c-1.9,1.1-4.1,1.8-7.1,1.8C245.6,108.9,241.9,106.7,241.9,99.4z"/>
		<path class="st1" d="M261.9,92.8L261.9,92.8c0-9.2,7.3-16.5,17.1-16.5c9.8,0,17,7.2,17,16.3v0.1c0,9.1-7.3,16.4-17.1,16.4
			S261.9,101.9,261.9,92.8z M287.2,92.8L287.2,92.8c0-4.8-3.4-8.8-8.3-8.8c-5.1,0-8.2,3.9-8.2,8.6v0.1c0,4.7,3.4,8.7,8.3,8.7
			C284.1,101.4,287.2,97.4,287.2,92.8z"/>
		<path class="st1" d="M300.5,76.8h9v6.4c1.8-4.4,4.8-7.2,10.1-7v9.4h-0.5c-6,0-9.6,3.6-9.6,11.1v11.7h-9V76.8z"/>
		<path class="st0" d="M379.4,83.3H349c-4,0-6.4-4.4-4.2-7.8l20-30.6c1.1-1.7,1.1-3.8,0-5.5l-20-30.6C342.6,5.5,345,1,349,1h30.4
			c1.7,0,3.3,0.9,4.2,2.3l23.5,36.1c1.1,1.7,1.1,3.8,0,5.5L383.6,81C382.6,82.4,381.1,83.3,379.4,83.3z"/>
		<g>
			<path class="st2" d="M335.9,65.4h-10.2c-4,0-6.4-4.4-4.2-7.8l8.3-12.7c1.1-1.7,1.1-3.8,0-5.5l-8.3-12.7c-2.2-3.3,0.2-7.8,4.2-7.8
				h10.2c1.7,0,3.3,0.9,4.2,2.3L352,39.4c1.1,1.7,1.1,3.8,0,5.5l-11.9,18.2C339.2,64.5,337.6,65.4,335.9,65.4z"/>
		</g>
		<g>
			<path class="st3" d="M308.7,58h-7c-2.7,0-4.4-3-2.9-5.3l5.7-8.7c0.7-1.1,0.7-2.6,0-3.7l-5.7-8.7c-1.5-2.3,0.1-5.3,2.9-5.3h7
				c1.2,0,2.2,0.6,2.9,1.5l8.1,12.4c0.7,1.1,0.7,2.6,0,3.7l-8.1,12.4C310.9,57.5,309.8,58,308.7,58z"/>
		</g>
	</g>
</g>
</svg>
